<?xml version="1.0" encoding="UTF-8" standalone="no"?>
<svg
   xmlns:dc="http://purl.org/dc/elements/1.1/"
   xmlns:cc="http://creativecommons.org/ns#"
   xmlns:rdf="http://www.w3.org/1999/02/22-rdf-syntax-ns#"
   xmlns:svg="http://www.w3.org/2000/svg"
   xmlns="http://www.w3.org/2000/svg"
   xmlns:sodipodi="http://sodipodi.sourceforge.net/DTD/sodipodi-0.dtd"
   xmlns:inkscape="http://www.inkscape.org/namespaces/inkscape"
   width="475pt"
   height="475pt"
   version="1.1"
   viewBox="0 0 475 475"
   id="svg149"
   sodipodi:docname="xAYDV3MarRJOqynN8Yhr.svg"
   inkscape:version="1.0.1 (3bc2e813f5, 2020-09-07)">
  <metadata
     id="metadata153">
    <rdf:RDF>
      <cc:Work
         rdf:about="">
        <dc:format>image/svg+xml</dc:format>
        <dc:type
           rdf:resource="http://purl.org/dc/dcmitype/StillImage" />
        <dc:title></dc:title>
      </cc:Work>
    </rdf:RDF>
  </metadata>
  <sodipodi:namedview
     pagecolor="#ffffff"
     bordercolor="#666666"
     borderopacity="1"
     objecttolerance="10"
     gridtolerance="10"
     guidetolerance="10"
     inkscape:pageopacity="0"
     inkscape:pageshadow="2"
     inkscape:window-width="1999"
     inkscape:window-height="1462"
     id="namedview151"
     showgrid="false"
     fit-margin-top="0"
     fit-margin-left="0"
     fit-margin-right="0"
     fit-margin-bottom="0"
     inkscape:zoom="1.08"
     inkscape:cx="306.44384"
     inkscape:cy="405.91239"
     inkscape:window-x="0"
     inkscape:window-y="0"
     inkscape:window-maximized="0"
     inkscape:current-layer="g147"
     inkscape:document-rotation="0" />
  <defs
     id="defs71">
    <symbol
       id="w"
       overflow="visible">
      <path
         d="M 7.5,-0.45312 C 7.11328,-0.24218 6.71094,-0.09374 6.2969,0 5.87893,0.10156 5.44143,0.15625 4.9844,0.15625 c -1.3672,0 -2.4453,-0.37891 -3.2344,-1.1406 -0.79297,-0.75781 -1.1875,-1.7891 -1.1875,-3.0938 0,-1.3008 0.39453,-2.332 1.1875,-3.0938 0.78906,-0.75781 1.8672,-1.1406 3.2344,-1.1406 0.45703,0 0.89453,0.054688 1.3125,0.15625 0.41406,0.09375 0.81641,0.24609 1.2031,0.45312 v 1.6875 C 7.11328,-6.28521 6.72656,-6.47662 6.3438,-6.5938 5.9688,-6.7188 5.57036,-6.7813 5.1563,-6.7813 c -0.75,0 -1.3438,0.24219 -1.7812,0.71875 -0.42969,0.48047 -0.64062,1.1406 -0.64062,1.9844 0,0.8438 0.21094,1.5078 0.64062,1.9844 0.4375,0.48047 1.0312,0.71875 1.7812,0.71875 0.41406,0 0.8125,-0.054688 1.1875,-0.17188 0.38281,-0.125 0.76953,-0.32031 1.1562,-0.59375 z"
         id="path2" />
    </symbol>
    <symbol
       id="b"
       overflow="visible">
      <path
         d="M 5.4844,-4.4531 C 5.31643,-4.535131 5.14456,-4.59372 4.96878,-4.62498 c -0.16797,-0.039062 -0.33594,-0.0625 -0.5,-0.0625 -0.5,0 -0.88672,0.16406 -1.1562,0.48438 -0.27344,0.32422 -0.40625,0.78125 -0.40625,1.375 V 0 h -1.9688 v -6.125 h 1.9688 v 1 c 0.25,-0.39453 0.53516,-0.6875 0.85938,-0.875 0.32031,-0.1875 0.71094,-0.28125 1.1719,-0.28125 0.0625,0 0.12891,0.00781 0.20312,0.015625 0.082031,0 0.19531,0.011719 0.34375,0.03125 z"
         id="path5" />
    </symbol>
    <symbol
       id="a"
       overflow="visible">
      <path
         d="m 7.0625,-3.0781 v 0.5625 H 2.4844 c 0.039063,0.46094 0.20312,0.80469 0.48438,1.0312 0.28906,0.23047 0.69141,0.34375 1.2031,0.34375 0.40625,0 0.82031,-0.0625 1.25,-0.1875 0.4375,-0.125 0.88281,-0.30469 1.3438,-0.54688 v 1.5 C 6.30474,-0.19534 5.8438,-0.06644 5.37508,0.01559 4.91414,0.10934 4.4532,0.15621 3.98448,0.15621 c -1.1055,0 -1.9648,-0.28125 -2.5781,-0.84375 -0.61719,-0.5625 -0.92188,-1.3516 -0.92188,-2.375 0,-1 0.30078,-1.7852 0.90625,-2.3594 0.60156,-0.57031 1.4297,-0.85938 2.4844,-0.85938 0.96875,0 1.7383,0.29297 2.3125,0.875 0.58203,0.58594 0.875,1.3594 0.875,2.3281 z M 5.0469,-3.73435 c 0,-0.36328 -0.10938,-0.66016 -0.32812,-0.89062 -0.21875,-0.22656 -0.5,-0.34375 -0.84375,-0.34375 -0.38672,0 -0.69922,0.10938 -0.9375,0.32812 -0.23047,0.21094 -0.375,0.51172 -0.4375,0.90625 z"
         id="path8" />
    </symbol>
    <symbol
       id="d"
       overflow="visible">
      <path
         d="m 3.6875,-2.75 c -0.40625,0 -0.71484,0.070312 -0.92188,0.20312 -0.21094,0.13672 -0.3125,0.33984 -0.3125,0.60938 0,0.25 0.082031,0.44922 0.25,0.59375 0.16406,0.13672 0.39453,0.20312 0.6875,0.20312 0.375,0 0.6875,-0.12891 0.9375,-0.39062 0.25,-0.26953 0.375,-0.60156 0.375,-1 V -2.75 Z M 6.6719,-3.5 V 0 H 4.7031 v -0.90625 c -0.26172,0.375 -0.55859,0.64844 -0.89062,0.8125 -0.32422,0.16406 -0.71875,0.25 -1.1875,0.25 -0.63672,0 -1.1523,-0.17969 -1.5469,-0.54688 -0.39844,-0.375 -0.59375,-0.85938 -0.59375,-1.4531 0,-0.71875 0.24219,-1.2422 0.73438,-1.5781 0.5,-0.33203 1.2734,-0.5 2.3281,-0.5 h 1.1562 v -0.15625 c 0,-0.3125 -0.125,-0.53516 -0.375,-0.67188 -0.24219,-0.14453 -0.62109,-0.21875 -1.1406,-0.21875 -0.41797,0 -0.80859,0.042969 -1.1719,0.125 -0.35547,0.085938 -0.6875,0.21094 -1,0.375 v -1.5 c 0.41406,-0.09375 0.83594,-0.16406 1.2656,-0.21875 0.42578,-0.0625 0.84766,-0.09375 1.2656,-0.09375 1.1016,0 1.8984,0.21875 2.3906,0.65625 0.48828,0.4375 0.73438,1.1484 0.73438,2.125 z"
         id="path11" />
    </symbol>
    <symbol
       id="c"
       overflow="visible">
      <path
         d="m 3.0781,-7.8594 v 1.7344 h 2.0156 v 1.4062 H 3.0781 v 2.5938 c 0,0.28125 0.054687,0.47656 0.17188,0.57812 0.11328,0.09375 0.33594,0.14062 0.67188,0.14062 h 1 V -6e-5 h -1.6719 c -0.77344,0 -1.3203,-0.16016 -1.6406,-0.48438 -0.32422,-0.32031 -0.48438,-0.86719 -0.48438,-1.6406 v -2.5938 H 0.1406 v -1.4062 h 0.98438 v -1.7344 z"
         id="path14" />
    </symbol>
    <symbol
       id="j"
       overflow="visible">
      <path
         d="M 5.1094,-5.2344 V -8.5156 H 7.0782 V 0 H 5.1094 v -0.89062 c -0.27344,0.36719 -0.57031,0.63281 -0.89062,0.79688 -0.32422,0.16406 -0.69922,0.25 -1.125,0.25 -0.76172,0 -1.3867,-0.29688 -1.875,-0.89062 -0.48047,-0.60156 -0.71875,-1.3789 -0.71875,-2.3281 0,-0.9375 0.23828,-1.707 0.71875,-2.3125 0.48828,-0.60156 1.1133,-0.90625 1.875,-0.90625 0.41406,0 0.78516,0.089844 1.1094,0.26562 0.33203,0.16797 0.63281,0.42969 0.90625,0.78125 z m -1.2969,3.9688 c 0.42578,0 0.75,-0.14844 0.96875,-0.45312 0.21875,-0.3125 0.32812,-0.75781 0.32812,-1.3438 0,-0.58203 -0.10938,-1.0234 -0.32812,-1.3281 -0.21875,-0.3125 -0.54297,-0.46875 -0.96875,-0.46875 -0.41797,0 -0.73438,0.15625 -0.95312,0.46875 -0.21875,0.30469 -0.32812,0.74609 -0.32812,1.3281 0,0.58594 0.10938,1.0312 0.32812,1.3438 0.21875,0.30469 0.53516,0.45312 0.95312,0.45312 z"
         id="path17" />
    </symbol>
    <symbol
       id="i"
       overflow="visible">
      <path
         d="m 4.2031,-1.2656 c 0.41406,0 0.73438,-0.14844 0.95312,-0.45312 0.21875,-0.3125 0.32812,-0.75781 0.32812,-1.3438 0,-0.58203 -0.10938,-1.0234 -0.32812,-1.3281 -0.21875,-0.3125 -0.53906,-0.46875 -0.95312,-0.46875 -0.41797,0 -0.74219,0.15625 -0.96875,0.46875 -0.21875,0.3125 -0.32812,0.75781 -0.32812,1.3281 0,0.58594 0.10938,1.0312 0.32812,1.3438 0.22656,0.30469 0.55078,0.45312 0.96875,0.45312 z M 2.9062,-5.2344 c 0.25781,-0.35156 0.55078,-0.61328 0.875,-0.78125 0.33203,-0.17578 0.71094,-0.26562 1.1406,-0.26562 0.75781,0 1.3789,0.30469 1.8594,0.90625 0.48828,0.60547 0.73438,1.375 0.73438,2.3125 0,0.94922 -0.24609,1.7266 -0.73438,2.3281 C 6.30073,-0.14067 5.6796,0.1562 4.9218,0.1562 4.49211,0.1562 4.11321,0.070262 3.7812,-0.0938 3.45698,-0.25786 3.16401,-0.52349 2.9062,-0.89068 V -6e-5 H 0.9374 v -8.5156 h 1.9688 z"
         id="path20" />
    </symbol>
    <symbol
       id="h"
       overflow="visible">
      <path
         d="m 0.14062,-6.125 h 1.9531 l 1.6406,4.1562 1.4062,-4.1562 h 1.9531 L 4.53112,0.5781 C 4.2694,1.2656 3.96862,1.7422 3.62487,2.0156 3.28112,2.28513 2.82018,2.42185 2.24987,2.42185 h -1.125 V 1.12495 H 1.73425 C 2.06628,1.12495 2.30456,1.070262 2.453,0.9687 2.60925,0.86323 2.72644,0.67573 2.81238,0.4062 L 2.859255,0.23432 Z"
         id="path23" />
    </symbol>
    <symbol
       id="g"
       overflow="visible">
      <path
         d="m 8.375,-0.60938 c -0.53125,0.26172 -1.0781,0.45312 -1.6406,0.57812 -0.5625,0.125 -1.1484,0.1875 -1.75,0.1875 -1.3672,0 -2.4453,-0.37891 -3.2344,-1.1406 -0.79297,-0.75781 -1.1875,-1.7891 -1.1875,-3.0938 0,-1.3125 0.39844,-2.3438 1.2031,-3.0938 0.8125,-0.75781 1.9219,-1.1406 3.3281,-1.1406 0.53906,0 1.0625,0.054688 1.5625,0.15625 0.5,0.09375 0.96875,0.24609 1.4062,0.45312 v 1.6875 C 7.61318,-6.2735 7.16006,-6.46881 6.703,-6.59381 c -0.44922,-0.125 -0.89844,-0.1875 -1.3438,-0.1875 -0.84375,0 -1.4961,0.23438 -1.9531,0.70312 -0.44922,0.46875 -0.67188,1.1367 -0.67188,2 0,0.86719 0.21875,1.5312 0.65625,2 0.4375,0.4688 1.0547,0.70312 1.8594,0.70312 0.21875,0 0.42188,-0.00781 0.60938,-0.03125 0.19531,-0.03125 0.36719,-0.070312 0.51562,-0.125 v -1.5938 h -1.2812 v -1.4062 h 3.2812 z"
         id="path26" />
    </symbol>
    <symbol
       id="f"
       overflow="visible">
      <path
         d="M 7.0938,-3.7344 V 0 H 5.125 v -2.8438 c 0,-0.53906 -0.011719,-0.91016 -0.03125,-1.1094 -0.023438,-0.19531 -0.0625,-0.34375 -0.125,-0.4375 -0.074219,-0.125 -0.17969,-0.22266 -0.3125,-0.29688 -0.125,-0.070312 -0.27344,-0.10938 -0.4375,-0.10938 -0.41797,0 -0.74219,0.16406 -0.96875,0.48438 -0.23047,0.3125 -0.34375,0.74609 -0.34375,1.2969 V -8e-5 h -1.9688 v -8.5156 h 1.9688 v 3.2812 c 0.28906,-0.35156 0.60156,-0.61328 0.9375,-0.78125 0.33203,-0.17578 0.69531,-0.26562 1.0938,-0.26562 0.70703,0 1.2422,0.21875 1.6094,0.65625 0.36328,0.4375 0.54688,1.0703 0.54688,1.8906 z"
         id="path29" />
    </symbol>
    <symbol
       id="v"
       overflow="visible">
      <path
         d="M 5.9844,-1.4844 H 2.6875 L 2.17188,0 h -2.1094 l 3.0156,-8.1719 h 2.5156 L 8.60928,0 H 6.49988 Z M 3.2188,-3 H 5.4532 L 4.3438,-6.25 Z"
         id="path32" />
    </symbol>
    <symbol
       id="u"
       overflow="visible">
      <path
         d="M 0.9375,-6.125 H 2.9063 V 0 H 0.9375 Z m 0,-2.3906 h 1.9688 v 1.5938 H 0.9375 Z"
         id="path35" />
    </symbol>
    <symbol
       id="t"
       overflow="visible">
      <path
         d="m 0.64062,-6.125 h 5.3438 v 1.3594 l -3.2344,3.3594 h 3.2344 V 0 h -5.4844 v -1.375 l 3.2344,-3.3438 h -3.0938 z"
         id="path38" />
    </symbol>
    <symbol
       id="s"
       overflow="visible">
      <path
         d="M 0.9375,-8.5156 H 2.9063 V 0 H 0.9375 Z"
         id="path41" />
    </symbol>
    <symbol
       id="r"
       overflow="visible">
      <path
         d="m 4.9688,-8.5156 v 1.2969 H 3.8907 c -0.28125,0 -0.48047,0.054688 -0.59375,0.15625 C 3.19148,-6.9687 3.1407,-6.79683 3.1407,-6.54683 v 0.42188 h 1.6719 v 1.4062 H 3.1407 V 5e-5 H 1.1876 v -4.7188 H 0.21885 v -1.4062 H 1.1876 v -0.42188 c 0,-0.66406 0.17969,-1.1602 0.54688,-1.4844 0.375,-0.32031 0.95312,-0.48438 1.7344,-0.48438 z"
         id="path44" />
    </symbol>
    <symbol
       id="e"
       overflow="visible">
      <path
         d="m 3.8594,-4.875 c -0.4375,0 -0.77344,0.15625 -1,0.46875 -0.23047,0.3125 -0.34375,0.76172 -0.34375,1.3438 0,0.59375 0.11328,1.0469 0.34375,1.3594 0.22656,0.3125 0.5625,0.46875 1,0.46875 0.42578,0 0.75,-0.15625 0.96875,-0.46875 0.22656,-0.3125 0.34375,-0.76562 0.34375,-1.3594 0,-0.58203 -0.11719,-1.0312 -0.34375,-1.3438 C 4.6094,-4.71875 4.28518,-4.875 3.8594,-4.875 Z m 0,-1.4062 c 1.0508,0 1.875,0.28906 2.4688,0.85938 0.59375,0.57422 0.89062,1.3594 0.89062,2.3594 0,1.0117 -0.29688,1.8047 -0.89062,2.375 -0.59375,0.5625 -1.418,0.84375 -2.4688,0.84375 -1.0625,0 -1.8906,-0.28125 -2.4844,-0.84375 -0.59375,-0.57031 -0.89062,-1.3633 -0.89062,-2.375 0,-1 0.29688,-1.7852 0.89062,-2.3594 0.59375,-0.57031 1.4219,-0.85938 2.4844,-0.85938 z"
         id="path47" />
    </symbol>
    <symbol
       id="q"
       overflow="visible">
      <path
         d="m 6.625,-5.1094 c 0.23828,-0.375 0.53125,-0.66016 0.875,-0.85938 0.34375,-0.20703 0.71875,-0.3125 1.125,-0.3125 0.70703,0 1.2422,0.21875 1.6094,0.65625 0.36328,0.4375 0.54688,1.0703 0.54688,1.8906 V -3e-5 h -1.9688 v -3.1875 c 0.00781,-0.050781 0.015625,-0.10156 0.015625,-0.15625 v -0.21875 c 0,-0.4375 -0.0625,-0.75 -0.1875,-0.9375 -0.125,-0.19531 -0.33594,-0.29688 -0.625,-0.29688 -0.36719,0 -0.65234,0.15625 -0.85938,0.46875 -0.19922,0.30469 -0.30469,0.74219 -0.3125,1.3125 V -6e-5 h -1.9688 v -3.1875 c 0,-0.6875 -0.058594,-1.125 -0.17188,-1.3125 -0.11719,-0.19531 -0.32422,-0.29688 -0.625,-0.29688 -0.375,0 -0.66797,0.15625 -0.875,0.46875 -0.19922,0.30469 -0.29688,0.74219 -0.29688,1.3125 V -9e-5 h -1.9688 v -6.125 h 1.9688 v 0.89062 c 0.23828,-0.34375 0.51562,-0.60156 0.82812,-0.78125 0.3125,-0.17578 0.65625,-0.26562 1.0312,-0.26562 0.41406,0 0.78516,0.10547 1.1094,0.3125 0.33203,0.21094 0.58203,0.49609 0.75,0.85938 z"
         id="path50" />
    </symbol>
    <symbol
       id="p"
       overflow="visible">
      <path
         d="M 1.0312,-8.1719 H 3.375 l 2.9688,5.6094 v -5.6094 h 2 V 0 H 6 L 3.0312,-5.6094 V 0 h -2 z"
         id="path53" />
    </symbol>
    <symbol
       id="o"
       overflow="visible">
      <path
         d="M 0.875,-2.3906 V -6.125 h 1.9688 v 0.60938 c 0,0.33594 -0.00781,0.75 -0.015625,1.25 v 1 c 0,0.5 0.00781,0.85938 0.03125,1.0781 0.03125,0.21094 0.078125,0.36719 0.14062,0.46875 0.082031,0.125 0.1875,0.22656 0.3125,0.29688 0.13281,0.0625 0.28516,0.09375 0.45312,0.09375 0.40625,0 0.72266,-0.15625 0.95312,-0.46875 0.23828,-0.3125 0.35938,-0.75 0.35938,-1.3125 v -3.0156 h 1.9531 v 6.125 h -1.9531 v -0.89062 c -0.29297,0.36719 -0.60547,0.63281 -0.9375,0.79688 -0.33594,0.16406 -0.69922,0.25 -1.0938,0.25 -0.71094,0 -1.25,-0.21094 -1.625,-0.64062 -0.36719,-0.4375 -0.54688,-1.0703 -0.54688,-1.9062 z"
         id="path56" />
    </symbol>
    <symbol
       id="n"
       overflow="visible">
      <path
         d="M 7.0938,-3.7344 V 0 H 5.125 v -2.8594 c 0,-0.53125 -0.011719,-0.89453 -0.03125,-1.0938 -0.023438,-0.19531 -0.0625,-0.34375 -0.125,-0.4375 -0.074219,-0.125 -0.17969,-0.22266 -0.3125,-0.29688 -0.125,-0.070312 -0.27344,-0.10938 -0.4375,-0.10938 -0.41797,0 -0.74219,0.16406 -0.96875,0.48438 -0.23047,0.3125 -0.34375,0.74609 -0.34375,1.2969 V -8e-5 h -1.9688 v -6.125 h 1.9688 v 0.89062 c 0.28906,-0.35156 0.60156,-0.61328 0.9375,-0.78125 0.33203,-0.17578 0.69531,-0.26562 1.0938,-0.26562 0.70703,0 1.2422,0.21875 1.6094,0.65625 0.36328,0.4375 0.54688,1.0703 0.54688,1.8906 z"
         id="path59" />
    </symbol>
    <symbol
       id="m"
       overflow="visible">
      <path
         d="m 1.0312,-8.1719 h 3.5 c 1.0312,0 1.8203,0.23438 2.375,0.70312 0.5625,0.46094 0.84375,1.1172 0.84375,1.9688 0,0.85547 -0.28125,1.5156 -0.84375,1.9844 -0.55469,0.46094 -1.3438,0.6875 -2.375,0.6875 H 3.1406 V 2e-5 H 1.0312 Z m 2.1094,1.5312 v 2.2812 h 1.1562 c 0.40625,0 0.71875,-0.097656 0.9375,-0.29688 0.22656,-0.19531 0.34375,-0.47656 0.34375,-0.84375 0,-0.36328 -0.11719,-0.64453 -0.34375,-0.84375 C 5.01555,-6.53919 4.70305,-6.64076 4.2968,-6.64076 Z"
         id="path62" />
    </symbol>
    <symbol
       id="l"
       overflow="visible">
      <path
         d="m 0.9375,-6.125 h 1.9688 v 6.0156 c 0,0.82031 -0.19922,1.4453 -0.59375,1.875 C 1.91411,2.2031 1.3438,2.42185 0.59375,2.42185 H -0.375 v -1.2969 h 0.34375 c 0.375,0 0.62891,-0.085938 0.76562,-0.25 0.13281,-0.16797 0.20312,-0.49609 0.20312,-0.98438 z m 0,-2.3906 h 1.9688 v 1.5938 H 0.9375 Z"
         id="path65" />
    </symbol>
    <symbol
       id="k"
       overflow="visible">
      <path
         d="m 5.8906,-5.9375 v 1.5938 C 5.61716,-4.51948 5.34763,-4.64839 5.0781,-4.73432 4.81638,-4.82807 4.53904,-4.87494 4.24998,-4.87494 c -0.54297,0 -0.96875,0.16406 -1.2812,0.48438 -0.30469,0.3125 -0.45312,0.75781 -0.45312,1.3281 0,0.57422 0.14844,1.0234 0.45312,1.3438 0.3125,0.32422 0.73828,0.48438 1.2812,0.48438 0.3125,0 0.60156,-0.046875 0.875,-0.14062 0.28125,-0.09375 0.53516,-0.22656 0.76562,-0.40625 v 1.5938 c -0.30469,0.11719 -0.61719,0.19531 -0.9375,0.25 -0.3125,0.0625 -0.625,0.09375 -0.9375,0.09375 -1.1055,0 -1.9688,-0.28125 -2.5938,-0.84375 -0.625,-0.57031 -0.9375,-1.3633 -0.9375,-2.375 0,-1.0078 0.3125,-1.7969 0.9375,-2.3594 0.625,-0.57031 1.4883,-0.85938 2.5938,-0.85938 0.3125,0 0.625,0.03125 0.9375,0.09375 0.3125,0.054688 0.625,0.13672 0.9375,0.25 z"
         id="path68" />
    </symbol>
  </defs>
  <g
     id="g147"
     transform="translate(-120.16712,-45.56571)">
    <path
       d="m 140.54444,488.11778 c 3.5,0 430.03,-0.043 433.13,0.0234 0.57031,0 1.1406,0.0469 1.707,0.13672 0.97656,0.15625 1.9414,0.42578 2.8633,0.78125 3.4805,1.3711 6.293,4.2188 7.6211,7.7148 0.53906,1.4141 0.81641,2.8945 0.86719,4.418 0.0742,4.1055 0.043,8.207 0.0195,12.336 -0.008,2.4648 -2.0156,4.4609 -4.4805,4.4609 h -450.68 c -2.4727,0 -4.4805,-1.9961 -4.4805,-4.4844 v -11.953 c 0.004,-0.51562 0.0273,-1.0312 0.0898,-1.5703 0.11719,-1.0312 0.35938,-2.0625 0.72266,-3.0469 0.81641,-2.2461 2.2383,-4.2422 4.0703,-5.7422 1.2109,-1.0078 2.5898,-1.793 4.07029,-2.3086 1.4414,-0.51953 2.9531,-0.74219 4.4766,-0.76562 z m 414.34,-15.785 c 0.004,-4.4648 0.13672,-8.9492 -0.004,-13.41 -0.0273,-0.65234 -0.14453,-1.2812 -0.36328,-1.9062 -0.42187,-1.168 -1.1914,-2.1992 -2.1914,-2.9375 -0.49609,-0.38281 -1.0469,-0.67578 -1.6328,-0.875 -0.10547,-0.0469 -0.21094,-0.0703 -0.31641,-0.11328 l -0.20703,-0.043 -0.0664,-0.0234 -0.18359,-0.0469 -0.0899,-0.0195 -0.14453,-0.0234 -0.23828,-0.0469 h -0.11719 l -0.10937,-0.0195 h -0.125 l -0.15625,-0.0234 h -0.29688 c -21.598,-0.15625 -43.199,0 -64.793,0 h -0.3125 l -0.25391,0.0234 h -0.008 c -0.26953,0.0195 -0.53906,0.0664 -0.80469,0.10938 h -0.008 l -0.17188,0.0469 c -0.14453,0.0234 -0.28906,0.0664 -0.43359,0.10938 l -0.18359,0.0703 c -0.58203,0.19922 -1.1367,0.49219 -1.6328,0.875 -1.0234,0.76172 -1.8008,1.8164 -2.2148,3.0273 -0.23047,0.67188 -0.33984,1.3672 -0.34766,2.0859 v 12.824 c 25.805,0.0898 51.605,0.17969 77.406,0.31641 z m -318.51,-0.31641 c 0.008,-4.3477 0.125,-8.7227 -0.004,-13.094 -0.0312,-0.69531 -0.16797,-1.3906 -0.41797,-2.043 -0.66797,-1.7266 -2.0898,-3.0938 -3.8398,-3.6992 l -0.22266,-0.0664 -0.13672,-0.0469 -0.11719,-0.0195 -0.23047,-0.0703 -0.0859,-0.0195 -0.18359,-0.0234 -0.22266,-0.0469 h -0.10156 l -0.11719,-0.0195 h -0.11719 l -0.16016,-0.0234 h -0.28906 c -21.598,-0.15625 -43.195,0 -64.793,0 h -0.3125 l -0.25391,0.0234 h -0.004 c -0.27344,0.0195 -0.54297,0.0664 -0.80859,0.10938 h -0.008 l -0.16797,0.0469 c -0.14844,0.0234 -0.29297,0.0664 -0.4375,0.10937 l -0.18359,0.0703 c -0.58203,0.19922 -1.1328,0.49219 -1.6328,0.875 -1.0625,0.78516 -1.8633,1.9062 -2.2617,3.1602 -0.19922,0.62891 -0.29297,1.2773 -0.29688,1.9531 v 13.141 c 25.801,-0.13672 51.605,-0.22656 77.406,-0.31641 z m 159.26,-0.15625 c 0.008,-4.3047 0.12891,-8.6328 -0.004,-12.938 -0.0312,-0.69531 -0.16797,-1.3906 -0.41797,-2.043 -0.66797,-1.7266 -2.0898,-3.0938 -3.8398,-3.6992 l -0.22656,-0.0664 -0.11719,-0.0469 -0.14062,-0.0195 -0.12109,-0.0469 -0.10547,-0.0234 h -0.0742 l -0.19531,-0.043 -0.22266,-0.0469 h -0.0937 l -0.125,-0.0195 h -0.11328 l -0.16406,-0.0234 h -0.28516 c -21.598,-0.15625 -43.195,0 -64.793,0 h -0.3125 l -0.25391,0.0234 h -0.004 c -0.27344,0.0195 -0.54297,0.0664 -0.80859,0.10938 h -0.008 l -0.16797,0.0469 c -0.14844,0.0234 -0.29297,0.0664 -0.4375,0.10938 l -0.18359,0.0703 c -0.58203,0.19922 -1.1328,0.49219 -1.6328,0.875 -1.0234,0.76172 -1.8008,1.8164 -2.2148,3.0273 -0.23047,0.67188 -0.33984,1.3672 -0.34375,2.0859 v 12.668 c 25.801,-0.0234 51.605,-0.0234 77.406,0 z m 149.46,-229.73 c -19.27,0.11328 -38.539,0.11328 -57.805,0 v 194.97 c 19.266,-0.11328 38.535,-0.11328 57.805,0 z m -159.26,0 c -19.27,0.11328 -38.535,0.11328 -57.805,0 v 194.97 c 19.27,-0.11328 38.535,-0.11328 57.805,0 z m -217.06,0 v 194.97 c 19.27,-0.11328 38.535,-0.11328 57.805,0 v -194.97 c -19.27,0.11328 -38.535,0.11328 -57.805,0 z m 386.12,-35.297 v 13.344 c -0.008,0.64844 -0.11328,1.3008 -0.31641,1.9062 -0.58203,1.7695 -1.9375,3.207 -3.6523,3.9023 -0.15234,0.043 -0.30078,0.10938 -0.45312,0.15625 l -0.0703,0.0195 -0.16016,0.0469 h -0.043 l -0.0977,0.0234 c -0.23828,0.0664 -0.48047,0.10937 -0.72266,0.13281 l -0.0469,0.0234 h -0.16406 l -0.16016,0.0234 h -0.0625 l -0.24219,0.0195 c -10.176,0.0898 -20.355,0.24609 -30.531,0.29297 -11.48,-0.0469 -22.965,-0.24609 -34.441,-0.29297 l -0.21094,-0.0195 h -0.1875 l -0.20312,-0.0234 -0.1875,-0.0234 h -0.043 l -0.11328,-0.0234 -0.12891,-0.0195 -0.19531,-0.0469 -0.21875,-0.043 -0.0312,-0.0234 -0.25,-0.0664 c -1.6641,-0.51562 -3.0664,-1.707 -3.8281,-3.2734 -0.30859,-0.62891 -0.50391,-1.3008 -0.59375,-1.9961 -0.0234,-0.17969 -0.0352,-0.35937 -0.043,-0.53906 -0.14062,-4.4844 -0.008,-8.9922 -0.008,-13.5 z m -159.25,0 v 13.344 c -0.0117,0.67188 -0.125,1.3438 -0.34375,1.9727 -0.59375,1.7266 -1.9336,3.1406 -3.6289,3.8125 -0.15234,0.0664 -0.30469,0.13281 -0.45703,0.17969 l -0.0625,0.0195 -0.14453,0.0234 -0.0703,0.0234 -0.082,0.0234 c -0.24219,0.0664 -0.48438,0.10937 -0.73047,0.13281 l -0.0469,0.0234 H 389.914 l -0.16016,0.0234 h -0.0625 l -0.24219,0.0195 c -10.176,0.0898 -20.355,0.24609 -30.531,0.29297 -11.48,-0.0469 -22.965,-0.24609 -34.441,-0.29297 l -0.21094,-0.0195 h -0.18359 l -0.20703,-0.0234 -0.19531,-0.0234 h -0.0312 l -0.12109,-0.0234 -0.125,-0.0195 -0.19531,-0.0469 -0.22656,-0.043 -0.0195,-0.0234 -0.21094,-0.0469 -0.17969,-0.0664 c -1.6016,-0.51562 -2.9531,-1.7031 -3.6914,-3.2266 -0.30859,-0.62891 -0.50391,-1.3008 -0.59375,-1.9961 -0.0234,-0.17969 -0.0352,-0.35937 -0.043,-0.53906 -0.14062,-4.4844 -0.004,-8.9922 -0.004,-13.5 z m -159.26,0 v 13.344 c -0.0156,0.73828 -0.14453,1.457 -0.39844,2.1289 -0.63281,1.7031 -2.0117,3.0938 -3.7188,3.7227 l -0.22266,0.0664 c -0.17578,0.0664 -0.34766,0.11328 -0.52344,0.15625 -0.22266,0.0469 -0.44922,0.0898 -0.67578,0.11328 l -0.0586,0.0234 h -0.12109 l -0.18359,0.0234 h -0.0312 l -0.26172,0.0195 c -10.176,0.0899 -20.352,0.24609 -30.531,0.29297 -11.477,-0.0469 -22.961,-0.24609 -34.441,-0.29297 l -0.21094,-0.0195 h -0.18359 l -0.20312,-0.0234 -0.19141,-0.0234 h -0.043 l -0.10938,-0.0234 -0.13281,-0.0195 -0.19531,-0.0469 -0.21875,-0.043 -0.0273,-0.0234 -0.25391,-0.0664 c -1.6875,-0.51562 -3.1055,-1.75 -3.8633,-3.3438 -0.28516,-0.60547 -0.46875,-1.2539 -0.55859,-1.9062 -0.0195,-0.19922 -0.0351,-0.37891 -0.043,-0.55859 -0.14063,-4.4844 -0.004,-8.9922 -0.004,-13.5 z m -87.707,-45.57 h 416.52 14.832 c 1.7852,0 3.4922,0.71875 4.7539,1.9727 1.2578,1.2578 1.9688,2.9609 1.9688,4.7539 v 16.418 c 0,1.793 -0.71094,3.4961 -1.9688,4.7539 -1.2617,1.2539 -2.9688,1.9727 -4.7539,1.9727 h -17.281 -411.62 -17.281 c -1.7812,0 -3.4883,-0.71875 -4.75,-1.9727 -1.2617,-1.2578 -1.9688,-2.9609 -1.9688,-4.7539 v -16.418 c 0,-1.793 0.70703,-3.4961 1.9688,-4.7539 1.2617,-1.2539 2.9688,-1.9727 4.75,-1.9727 h 14.832 z m 408.67,-15.695 v -14.938 c 0,-4.6641 -2.8945,-8.8359 -7.2617,-10.473 -32.57,-12.246 -164.66,-61.871002 -189.21,-71.090002 -2.543,-0.96484 -5.3398,-0.96484 -7.8789,0 -63.074,23.703 -126.14,47.387 -189.21,71.090002 -4.3711,1.6367 -7.2617,5.8086 -7.2617,10.473 v 14.938 z"
       fill-rule="evenodd"
       id="path73"
       style="fill:#8c52ff;fill-opacity:1" />
  </g>
</svg>
