<?xml version="1.0" encoding="UTF-8" standalone="no"?>
<svg
   xmlns:dc="http://purl.org/dc/elements/1.1/"
   xmlns:cc="http://creativecommons.org/ns#"
   xmlns:rdf="http://www.w3.org/1999/02/22-rdf-syntax-ns#"
   xmlns:svg="http://www.w3.org/2000/svg"
   xmlns="http://www.w3.org/2000/svg"
   xmlns:sodipodi="http://sodipodi.sourceforge.net/DTD/sodipodi-0.dtd"
   xmlns:inkscape="http://www.inkscape.org/namespaces/inkscape"
   width="550pt"
   height="550pt"
   version="1.1"
   viewBox="0 0 550 550"
   id="svg44"
   sodipodi:docname="IKoI3HDcLKr7wW46mRSF.svg"
   inkscape:version="1.0.1 (3bc2e813f5, 2020-09-07)">
  <metadata
     id="metadata48">
    <rdf:RDF>
      <cc:Work
         rdf:about="">
        <dc:format>image/svg+xml</dc:format>
        <dc:type
           rdf:resource="http://purl.org/dc/dcmitype/StillImage" />
        <dc:title></dc:title>
      </cc:Work>
    </rdf:RDF>
  </metadata>
  <sodipodi:namedview
     pagecolor="#ffffff"
     bordercolor="#666666"
     borderopacity="1"
     objecttolerance="10"
     gridtolerance="10"
     guidetolerance="10"
     inkscape:pageopacity="0"
     inkscape:pageshadow="2"
     inkscape:window-width="1911"
     inkscape:window-height="1622"
     id="namedview46"
     showgrid="false"
     fit-margin-top="0"
     fit-margin-left="0"
     fit-margin-right="0"
     fit-margin-bottom="0"
     inkscape:zoom="1.08"
     inkscape:cx="357.77277"
     inkscape:cy="414.33969"
     inkscape:window-x="0"
     inkscape:window-y="0"
     inkscape:window-maximized="0"
     inkscape:current-layer="g42"
     inkscape:document-rotation="0" />
  <defs
     id="defs14">
    <symbol
       id="d"
       overflow="visible">
      <path
         d="m 39.078,-2.3281 c -2.0117,1.043 -4.1094,1.8281 -6.2969,2.3594 -2.1875,0.5313 -4.4648,0.79688 -6.8281,0.79688 -7.0859,0 -12.699,-1.9766 -16.844,-5.9375 -4.1367,-3.957 -6.2031,-9.3281 -6.2031,-16.109 0,-6.7891 2.0664,-12.164 6.2031,-16.125 4.1445,-3.9688 9.7578,-5.9531 16.844,-5.9531 2.3633,0 4.6406,0.26562 6.8281,0.79688 2.1875,0.53126 4.2852,1.3242 6.2969,2.375 v 8.7969 c -2.0312,-1.3828 -4.0391,-2.3984 -6.0156,-3.0469 -1.9688,-0.64453 -4.0469,-0.96875 -6.2344,-0.96875 -3.9062,0 -6.9844,1.2578 -9.2344,3.7656 -2.2422,2.5 -3.3594,5.9531 -3.3594,10.359 0,4.3867 1.1172,7.8359 3.3594,10.344 2.25,2.5 5.3281,3.75 9.2344,3.75 2.1875,0 4.2656,-0.32031 6.2344,-0.96875 1.9766,-0.64453 3.9844,-1.6602 6.0156,-3.0469 z"
         id="path2" />
    </symbol>
    <symbol
       id="a"
       overflow="visible">
      <path
         d="m 16.031,-40.953 v 9.0625 h 10.516 v 7.2812 H 16.031 v 13.531 c 0,1.4805 0.28906,2.4805 0.875,3 0.59375,0.52344 1.7656,0.78125 3.5156,0.78125 h 5.2344 v 7.2969 h -8.7344 c -4.0312,0 -6.8867,-0.83594 -8.5625,-2.5156 -1.6797,-1.6875 -2.5156,-4.5391 -2.5156,-8.5625 v -13.531 H 0.7654 v -7.2812 h 5.0781 v -9.0625 z"
         id="path5" />
    </symbol>
    <symbol
       id="c"
       overflow="visible">
      <path
         d="M 26.594,-27.234 V -44.312 H 36.86 V 0 H 26.594 v -4.6094 c -1.3984,1.875 -2.9453,3.25 -4.6406,4.125 -1.6875,0.875 -3.6406,1.3125 -5.8594,1.3125 -3.9297,0 -7.1562,-1.5625 -9.6875,-4.6875 -2.5234,-3.125 -3.7812,-7.1445 -3.7812,-12.062 0,-4.9141 1.2578,-8.9375 3.7812,-12.062 2.5312,-3.125 5.7578,-4.6875 9.6875,-4.6875 2.1953,0 4.1445,0.44531 5.8438,1.3281 1.707,0.88672 3.2578,2.2578 4.6562,4.1094 z m -6.7188,20.656 c 2.1875,0 3.8516,-0.79688 5,-2.3906 1.1445,-1.5938 1.7188,-3.9102 1.7188,-6.9531 0,-3.0391 -0.57422,-5.3594 -1.7188,-6.9531 -1.1484,-1.5938 -2.8125,-2.3906 -5,-2.3906 -2.168,0 -3.8242,0.79688 -4.9688,2.3906 -1.1484,1.5938 -1.7188,3.9141 -1.7188,6.9531 0,3.043 0.57031,5.3594 1.7188,6.9531 1.1445,1.5938 2.8008,2.3906 4.9688,2.3906 z"
         id="path8" />
    </symbol>
    <symbol
       id="b"
       overflow="visible">
      <path
         d="m 21.875,-6.5781 c 2.1758,0 3.8359,-0.79688 4.9844,-2.3906 1.1562,-1.5938 1.7344,-3.9102 1.7344,-6.9531 0,-3.0391 -0.57812,-5.3594 -1.7344,-6.9531 -1.1484,-1.5938 -2.8086,-2.3906 -4.9844,-2.3906 -2.1875,0 -3.8672,0.80469 -5.0312,2.4062 -1.168,1.6055 -1.75,3.918 -1.75,6.9375 0,3.0234 0.58203,5.3359 1.75,6.9375 1.1641,1.6055 2.8438,2.4062 5.0312,2.4062 z m -6.7812,-20.656 c 1.4062,-1.8516 2.9609,-3.2227 4.6719,-4.1094 1.707,-0.88281 3.6719,-1.3281 5.8906,-1.3281 3.9375,0 7.1641,1.5625 9.6875,4.6875 2.5195,3.125 3.7812,7.1484 3.7812,12.062 0,4.918 -1.2617,8.9375 -3.7812,12.062 -2.5234,3.125 -5.75,4.6875 -9.6875,4.6875 -2.2188,0 -4.1836,-0.44531 -5.8906,-1.3281 -1.7109,-0.88281 -3.2656,-2.2539 -4.6719,-4.1094 V -7e-4 H 4.9058 v -44.312 h 10.188 z"
         id="path11" />
    </symbol>
  </defs>
  <g
     id="g42"
     transform="translate(-81.670421,-11.467456)">
    <path
       d="m 581.96111,36.234 c -131.72,192.96 -15.051,22.051 -146.65,215.02 28.57,1.3164 54.309,17.648 67.668,42.934 l 117.6,-235.2 c 3.1719,-6.8242 2.7266,-14.781 -1.1914,-21.207 -3.9141,-6.4258 -10.781,-10.469 -18.297,-10.777 -7.5195,-0.3125 -14.695,3.1523 -19.125,9.2344 z"
       id="path16"
       style="fill:#ff66c4;fill-opacity:1" />
    <path
       d="m 382.11111,301.18 c -17.5,27.066 2.332,101.73 2.332,101.73 0,0 78.051,-11.668 95.668,-38.266 v -0.004 c 11.336,-17.504 12.473,-39.73 2.9805,-58.301 -9.4922,-18.57 -28.168,-30.668 -49,-31.734 -20.828,-1.0625 -40.645,9.0625 -51.98,26.57 z"
       id="path18"
       style="fill:#ff66c4;fill-opacity:1" />
    <path
       d="m 314.44111,461.25 c 0,12.887 -10.445,23.332 -23.332,23.332 -12.887,0 -23.332,-10.445 -23.332,-23.332 0,-12.887 10.445,-23.332 23.332,-23.332 12.887,0 23.332,10.445 23.332,23.332"
       id="path20"
       style="fill:#ff66c4;fill-opacity:1" />
    <path
       d="m 445.11111,449.58 c -20.066,0 -42.816,2.4492 -56,-23.332 l -21.934,3.1484 c -18.898,-72.102 -34.301,-148.05 36.516,-172.79 l 106.05,-155.98 c -110.95,-178.38 -435.279999,-50.168 -416.149999,206.15 4.5,56.215 26.558999,109.6 63.046999,152.6 36.492,43 85.574,73.445 140.31,87.031 54.734,13.59 112.36,9.6289 164.72,-11.312 12.723,-5.2695 22.285,-16.133 25.891,-29.422 3.6094,-13.285 0.85547,-27.496 -7.4531,-38.473 -8.3086,-10.98 -21.234,-17.488 -35.004,-17.625 z m -235.67,-303.33 c 15.473,0 30.309,6.1445 41.25,17.086 10.938,10.938 17.086,25.777 17.086,41.246 0,15.473 -6.1484,30.309 -17.086,41.25 -10.941,10.938 -25.777,17.086 -41.25,17.086 -15.469,0 -30.309,-6.1484 -41.246,-17.086 -10.941,-10.941 -17.086,-25.777 -17.086,-41.25 0,-15.469 6.1445,-30.309 17.086,-41.246 10.938,-10.941 25.777,-17.086 41.246,-17.086 z m -23.332,256.67 c -12.375,0 -24.246,-4.918 -33,-13.668 -8.75,-8.7539 -13.668,-20.625 -13.668,-33 0,-12.375 4.918,-24.246 13.668,-33 8.7539,-8.75 20.625,-13.668 33,-13.668 12.375,0 24.246,4.918 33,13.668 8.75,8.7539 13.668,20.625 13.668,33 0,12.375 -4.918,24.246 -13.668,33 -8.7539,8.75 -20.625,13.668 -33,13.668 z m 105,105 c -12.375,0 -24.246,-4.918 -33,-13.668 -8.75,-8.7539 -13.668,-20.625 -13.668,-33 0,-12.375 4.918,-24.246 13.668,-33 8.7539,-8.75 20.625,-13.668 33,-13.668 12.375,0 24.246,4.918 33,13.668 8.75,8.7539 13.668,20.625 13.668,33 0,12.375 -4.918,24.246 -13.668,33 -8.7539,8.75 -20.625,13.668 -33,13.668 z m 11.668,-396.67 c 0,-15.473 6.1445,-30.309 17.086,-41.246 10.938,-10.941 25.773,-17.086 41.246,-17.086 15.473,0 30.309,6.1445 41.246,17.086 10.941,10.938 17.086,25.773 17.086,41.246 0,15.473 -6.1445,30.309 -17.086,41.246 -10.938,10.941 -25.773,17.086 -41.246,17.086 -15.473,0 -30.309,-6.1445 -41.246,-17.086 -10.941,-10.938 -17.086,-25.773 -17.086,-41.246 z"
       id="path22"
       style="fill:#ff66c4;fill-opacity:1" />
    <path
       d="m 244.44111,204.58 c 0,19.332 -15.668,35 -35,35 -19.328,0 -35,-15.668 -35,-35 0,-19.328 15.672,-35 35,-35 19.332,0 35,15.672 35,35"
       id="path24"
       style="fill:#ff66c4;fill-opacity:1" />
    <path
       d="m 396.11111,111.25 c 0,19.328 -15.672,35 -35,35 -19.328,0 -35,-15.672 -35,-35 0,-19.328 15.672,-35 35,-35 19.328,0 35,15.672 35,35"
       id="path26"
       style="fill:#ff66c4;fill-opacity:1" />
    <path
       d="m 209.44111,356.25 c 0,12.887 -10.445,23.332 -23.332,23.332 -12.887,0 -23.332,-10.445 -23.332,-23.332 0,-12.887 10.445,-23.332 23.332,-23.332 12.887,0 23.332,10.445 23.332,23.332"
       id="path28"
       style="fill:#ff66c4;fill-opacity:1" />
  </g>
</svg>
