<?xml version="1.0" encoding="UTF-8" standalone="no"?>
<svg
   xmlns:dc="http://purl.org/dc/elements/1.1/"
   xmlns:cc="http://creativecommons.org/ns#"
   xmlns:rdf="http://www.w3.org/1999/02/22-rdf-syntax-ns#"
   xmlns:svg="http://www.w3.org/2000/svg"
   xmlns="http://www.w3.org/2000/svg"
   xmlns:sodipodi="http://sodipodi.sourceforge.net/DTD/sodipodi-0.dtd"
   xmlns:inkscape="http://www.inkscape.org/namespaces/inkscape"
   width="498.39798pt"
   height="498.74799pt"
   version="1.1"
   viewBox="0 0 498.39798 498.74799"
   id="svg4"
   sodipodi:docname="noun-communities-2586450.svg"
   inkscape:version="1.0.1 (3bc2e813f5, 2020-09-07)">
  <metadata
     id="metadata10">
    <rdf:RDF>
      <cc:Work
         rdf:about="">
        <dc:format>image/svg+xml</dc:format>
        <dc:type
           rdf:resource="http://purl.org/dc/dcmitype/StillImage" />
        <dc:title></dc:title>
      </cc:Work>
    </rdf:RDF>
  </metadata>
  <defs
     id="defs8" />
  <sodipodi:namedview
     pagecolor="#ffffff"
     bordercolor="#666666"
     borderopacity="1"
     objecttolerance="10"
     gridtolerance="10"
     guidetolerance="10"
     inkscape:pageopacity="0"
     inkscape:pageshadow="2"
     inkscape:window-width="1943"
     inkscape:window-height="1554"
     id="namedview6"
     showgrid="false"
     fit-margin-top="0"
     fit-margin-left="0"
     fit-margin-right="0"
     fit-margin-bottom="0"
     inkscape:zoom="1.08"
     inkscape:cx="332.26534"
     inkscape:cy="425.832"
     inkscape:window-x="0"
     inkscape:window-y="0"
     inkscape:window-maximized="0"
     inkscape:current-layer="svg4" />
  <path
     d="m 428.399,179.374 c -9.6562,-24.785 -24.344,-47.305 -43.141,-66.129 -18.793,-18.824 -41.289,-33.551 -66.059,-43.246 0,-25.008 -13.344,-48.117 -35,-60.621 -21.656,-12.504 -48.344,-12.504 -70,0 -21.656,12.504 -35,35.613 -35,60.621 -24.77,9.6953 -47.266,24.422 -66.059,43.246 -18.797,18.824 -33.484,41.344 -43.141,66.129 -25.008,0 -48.117,13.344 -60.621,35 -12.504,21.656 -12.504,48.344 0,70 12.504,21.656 35.613,35 60.621,35 9.6562,24.785 24.344,47.305 43.141,66.129 18.793,18.824 41.289,33.551 66.059,43.246 0,25.008 13.344,48.117 35,60.621 21.656,12.504 48.344,12.504 70,0 21.656,-12.504 35,-35.613 35,-60.621 24.77,-9.6953 47.266,-24.422 66.059,-43.246 18.797,-18.824 33.484,-41.344 43.141,-66.129 25.008,0 48.117,-13.344 60.621,-35 12.504,-21.656 12.504,-48.344 0,-70 -12.504,-21.656 -35.613,-35 -60.621,-35 z m -35,132.65 c -15.777,36.598 -44.953,65.773 -81.551,81.551 -7.7305,-15.734 -21.086,-27.996 -37.422,-34.355 -16.336,-6.3633 -34.465,-6.3633 -50.805,0 -16.336,6.3594 -29.691,18.621 -37.422,34.355 -36.598,-15.777 -65.773,-44.953 -81.551,-81.551 15.734,-7.7305 27.996,-21.086 34.359,-37.422 6.3594,-16.336 6.3594,-34.465 0,-50.805 -6.3633,-16.336 -18.625,-29.691 -34.359,-37.422 15.777,-36.598 44.953,-65.773 81.551,-81.551 7.7305,15.734 21.086,27.996 37.422,34.359 16.34,6.3594 34.469,6.3594 50.805,0 16.336,-6.3633 29.691,-18.625 37.422,-34.359 36.598,15.777 65.773,44.953 81.551,81.551 -15.734,7.7305 -27.996,21.086 -34.355,37.422 -6.3633,16.34 -6.3633,34.469 0,50.805 6.3594,16.336 18.621,29.691 34.355,37.422 z"
     id="path2"
     style="fill:#009337;fill-opacity:1" />
</svg>
